<?xml version="1.0" encoding="UTF-8" standalone="no"?>
<!-- Created with Inkscape (http://www.inkscape.org/) -->

<svg
   xmlns:dc="http://purl.org/dc/elements/1.1/"
   xmlns:cc="http://creativecommons.org/ns#"
   xmlns:rdf="http://www.w3.org/1999/02/22-rdf-syntax-ns#"
   xmlns:svg="http://www.w3.org/2000/svg"
   xmlns="http://www.w3.org/2000/svg"
   xmlns:sodipodi="http://sodipodi.sourceforge.net/DTD/sodipodi-0.dtd"
   xmlns:inkscape="http://www.inkscape.org/namespaces/inkscape"
   width="256"
   height="120"
   viewBox="0 0 256 120"
   version="1.1"
   id="SVGRoot"
   inkscape:version="0.92.3 (2405546, 2018-03-11)"
   sodipodi:docname="lifecell.svg">
  <sodipodi:namedview
     id="base"
     pagecolor="#ffffff"
     bordercolor="#666666"
     borderopacity="1.0"
     inkscape:pageopacity="0.0"
     inkscape:pageshadow="2"
     inkscape:zoom="1"
     inkscape:cx="128"
     inkscape:cy="128"
     inkscape:document-units="px"
     inkscape:current-layer="layer1"
     showgrid="false"
     inkscape:window-width="1920"
     inkscape:window-height="1019"
     inkscape:window-x="1280"
     inkscape:window-y="0"
     inkscape:window-maximized="1"
     inkscape:grid-bbox="true" />
  <defs
     id="defs61">
    <clipPath
       clipPathUnits="userSpaceOnUse"
       id="clipPath40">
      <path
         d="M 0,566.929 H 566.929 V 0 H 0 Z"
         id="path38"
         inkscape:connector-curvature="0" />
    </clipPath>
    <clipPath
       clipPathUnits="userSpaceOnUse"
       id="clipPath30">
      <path
         d="m 49.516,483.449 c 0,-19.241 15.598,-34.84 34.842,-34.84 v 0 c 19.241,0 34.838,15.599 34.838,34.84 v 0 c 0,19.241 -15.597,34.841 -34.838,34.841 v 0 c -19.244,0 -34.842,-15.6 -34.842,-34.841"
         id="path28"
         inkscape:connector-curvature="0" />
    </clipPath>
    <clipPath
       clipPathUnits="userSpaceOnUse"
       id="clipPath18">
      <path
         d="M 0,566.929 H 566.929 V 0 H 0 Z"
         id="path16"
         inkscape:connector-curvature="0" />
    </clipPath>
  </defs>
  <metadata
     id="metadata64">
    <rdf:RDF>
      <cc:Work
         rdf:about="">
        <dc:format>image/svg+xml</dc:format>
        <dc:type
           rdf:resource="http://purl.org/dc/dcmitype/StillImage" />
        <dc:title></dc:title>
      </cc:Work>
    </rdf:RDF>
  </metadata>
  <g
     id="layer1"
     inkscape:groupmode="layer"
     inkscape:label="Layer 1"
     transform="translate(0,-136)">
    <g
       id="g238"
       transform="matrix(0.33418245,0,0,0.33418245,94.367265,97.747828)">
      <g
         id="g12"
         transform="matrix(3.7948214,0,0,-3.7935205,-447.6923,2130.9758)">
        <g
           id="g14"
           clip-path="url(#clipPath18)">
          <g
             id="g20"
             transform="translate(49.5159,483.4491)">
            <path
               d="M 0,0 C 0,-19.241 15.598,-34.84 34.842,-34.84 54.083,-34.84 69.68,-19.241 69.68,0 69.68,19.242 54.083,34.841 34.842,34.841 15.598,34.841 0,19.242 0,0"
               style="fill:#024ea2;fill-opacity:1;fill-rule:nonzero;stroke:none"
               id="path22"
               inkscape:connector-curvature="0" />
          </g>
        </g>
      </g>
      <g
         id="g24"
         transform="matrix(3.7948214,0,0,-3.7935205,-447.6923,2130.9758)">
        <g
           id="g26"
           clip-path="url(#clipPath30)">
          <path
             d="m 49.516,518.289 h 69.68 v -69.68 h -69.68 z"
             style="fill:#024ea2;fill-opacity:1;fill-rule:nonzero;stroke:none"
             id="path32"
             inkscape:connector-curvature="0" />
        </g>
      </g>
      <g
         id="g208">
        <g
           transform="matrix(3.7948214,0,0,-3.7935205,-447.6923,2130.9758)"
           id="g34">
          <g
             clip-path="url(#clipPath40)"
             id="g36">
            <g
               transform="translate(55.4834,483.4658)"
               id="g42">
              <path
                 inkscape:connector-curvature="0"
                 id="path44"
                 style="fill:#ffcb04;fill-opacity:1;fill-rule:nonzero;stroke:none"
                 d="M 0,0 C 0,15.951 12.931,28.878 28.883,28.878 44.839,28.878 57.77,15.951 57.77,0 c 0,-15.956 -12.931,-28.883 -28.887,-28.883 -3.151,0 -6.18,0.506 -9.02,1.433 2.057,11.917 9.583,21.642 19.532,25.762 1.181,-1.361 2.919,-2.217 4.859,-2.217 3.549,0 6.416,2.867 6.416,6.416 0,3.547 -2.867,6.422 -6.416,6.422 -3.545,0 -6.407,-2.865 -6.422,-6.409 C 25.138,-1.293 14.859,-10.15 9.637,-21.539 7.977,-20.059 6.5,-18.389 5.22,-16.566 5.522,-5.481 11.008,4.214 19.224,9.93 20.4,8.6 22.113,7.77 24.023,7.77 c 3.544,0 6.419,2.874 6.419,6.423 0,3.551 -2.875,6.422 -6.419,6.422 -3.548,0 -6.423,-2.871 -6.423,-6.422 0,-0.19 0.013,-0.377 0.021,-0.555 C 9.974,10.954 3.7,5.644 0.023,-1.124 0.009,-0.754 0,-0.378 0,0" />
            </g>
            <g
               transform="translate(226.9752,475.3566)"
               id="g46">
              <path
                 inkscape:connector-curvature="0"
                 id="path48"
                 style="fill:#024ea2;fill-opacity:1;fill-rule:nonzero;stroke:none"
                 d="m 0,0 v 1.739 20.907 c 0,0.298 -0.132,0.425 -0.43,0.425 h -5.088 c -0.301,0 -0.429,-0.127 -0.429,-0.425 V -1.628 c 0,-4.365 1.686,-5.115 5.563,-5.115 0.127,0 0.222,0.011 0.313,0.101 C 0.015,-6.558 0,-6.338 0,-6.338 Z" />
            </g>
            <g
               transform="translate(131.0802,475.3566)"
               id="g50">
              <path
                 inkscape:connector-curvature="0"
                 id="path52"
                 style="fill:#024ea2;fill-opacity:1;fill-rule:nonzero;stroke:none"
                 d="m 0,0 v 1.739 20.907 c 0,0.298 -0.13,0.425 -0.43,0.425 h -5.091 c -0.299,0 -0.427,-0.127 -0.427,-0.425 V -1.628 c 0,-4.364 1.686,-5.115 5.564,-5.115 0.125,0 0.221,0.011 0.31,0.103 C 0.014,-6.558 0,-6.338 0,-6.338 Z" />
            </g>
            <g
               transform="translate(147.4697,468.5947)"
               id="g54">
              <path
                 inkscape:connector-curvature="0"
                 id="path56"
                 style="fill:#024ea2;fill-opacity:1;fill-rule:nonzero;stroke:none"
                 d="m 0,0 c -0.301,0 -0.428,0.128 -0.428,0.424 v 15.939 c 0,0.169 -0.086,0.255 -0.257,0.255 h -1.284 c -0.301,0 -0.429,0.127 -0.429,0.425 v 3.527 c 0,0.296 0.128,0.424 0.429,0.424 h 1.284 c 0.171,0 0.257,0.085 0.257,0.255 v 1.487 c 0,4.972 2.31,7.098 7.271,7.098 h 3.226 c 0.299,0 0.428,-0.128 0.428,-0.426 v -3.837 c 0,-0.298 -0.129,-0.426 -0.428,-0.426 H 7.87 c -1.883,0 -2.353,-0.469 -2.353,-2.21 v -1.686 c 0,-0.17 0.088,-0.255 0.257,-0.255 h 2.724 c 0.3,0 0.427,-0.128 0.427,-0.424 v -3.527 c 0,-0.298 -0.127,-0.425 -0.427,-0.425 H 5.774 c -0.169,0 -0.257,-0.086 -0.257,-0.255 V 0.424 C 5.517,0.128 5.389,0 5.091,0 Z" />
            </g>
            <g
               transform="translate(136.1485,468.5947)"
               id="g58">
              <path
                 inkscape:connector-curvature="0"
                 id="path60"
                 style="fill:#024ea2;fill-opacity:1;fill-rule:nonzero;stroke:none"
                 d="M 0,0 C -0.297,0 -0.428,0.128 -0.428,0.424 V 20.57 c 0,0.296 0.131,0.424 0.428,0.424 h 5.135 c 0.301,0 0.428,-0.128 0.428,-0.424 V 0.424 C 5.563,0.128 5.436,0 5.135,0 Z m 0,25.179 c -0.297,0 -0.428,0.126 -0.428,0.425 v 3.804 c 0,0.298 0.131,0.426 0.428,0.426 h 5.135 c 0.301,0 0.428,-0.128 0.428,-0.426 v -3.804 c 0,-0.299 -0.127,-0.425 -0.428,-0.425 z" />
            </g>
            <g
               transform="translate(180.3571,474.1281)"
               id="g62">
              <path
                 inkscape:connector-curvature="0"
                 id="path64"
                 style="fill:#024ea2;fill-opacity:1;fill-rule:nonzero;stroke:none"
                 d="m 0,0 c -0.426,1.246 -0.588,2.92 -0.588,4.981 0,2.061 0.162,3.733 0.588,4.981 1.201,3.819 4.495,5.881 8.943,5.881 3.424,0 6.289,-1.546 7.826,-3.907 0.132,-0.215 0.132,-0.431 -0.084,-0.602 L 12.963,8.888 C 12.706,8.714 12.491,8.76 12.321,8.973 11.467,10.177 10.352,10.776 9.028,10.776 7.359,10.776 6.291,10.045 5.821,8.545 5.562,7.813 5.432,6.612 5.432,4.981 c 0,-1.633 0.13,-2.833 0.389,-3.564 0.47,-1.503 1.538,-2.234 3.207,-2.234 1.324,0 2.439,0.603 3.293,1.807 0.17,0.212 0.385,0.256 0.642,0.084 l 3.722,-2.447 C 16.901,-1.545 16.901,-1.76 16.769,-1.974 15.232,-4.334 12.367,-5.88 8.943,-5.88 4.495,-5.88 1.201,-3.82 0,0" />
            </g>
            <g
               transform="translate(211.4717,481.2996)"
               id="g66">
              <path
                 inkscape:connector-curvature="0"
                 id="path68"
                 style="fill:#024ea2;fill-opacity:1;fill-rule:nonzero;stroke:none"
                 d="m 0,0 c 0.174,0 0.256,0.085 0.256,0.257 0,0.556 -0.082,1.072 -0.212,1.545 -0.516,1.502 -1.562,2.277 -3.358,2.277 -1.603,0 -3.06,-0.775 -3.573,-2.277 C -7.015,1.329 -7.101,0.813 -7.101,0.257 -7.101,0.085 -7.015,0 -6.842,0 Z m -12.319,-7.13 c -0.471,1.463 -0.676,3.092 -0.676,4.939 0,1.931 0.163,3.606 0.631,4.98 1.198,3.737 4.494,5.882 8.9,5.882 4.49,0 7.743,-2.19 8.942,-5.84 0.469,-1.459 0.551,-3.604 0.551,-6.396 0,-0.3 -0.172,-0.429 -0.47,-0.429 H -6.736 c -0.171,0 -0.257,-0.088 -0.257,-0.258 0.045,-0.429 0.019,-0.815 0.151,-1.157 0.556,-1.849 2.008,-2.747 4.275,-2.75 1.662,-0.003 2.982,0.525 3.814,1.102 0.763,0.53 0.75,0.721 1.176,0.376 l 3.18,-2.293 c 0.288,-0.213 0.256,-0.386 0.045,-0.601 -2.181,-2.317 -5.091,-3.477 -8.814,-3.477 -4.663,0 -7.957,2.146 -9.153,5.922" />
            </g>
            <g
               transform="translate(170.7357,481.2996)"
               id="g70">
              <path
                 inkscape:connector-curvature="0"
                 id="path72"
                 style="fill:#024ea2;fill-opacity:1;fill-rule:nonzero;stroke:none"
                 d="m 0,0 c 0.172,0 0.257,0.085 0.257,0.257 0,0.556 -0.085,1.072 -0.213,1.545 -0.515,1.502 -1.562,2.277 -3.359,2.277 -1.604,0 -3.059,-0.775 -3.575,-2.277 C -7.018,1.329 -7.106,0.813 -7.106,0.257 -7.106,0.085 -7.018,0 -6.843,0 Z m -12.321,-7.13 c -0.471,1.463 -0.676,3.092 -0.676,4.939 0,1.931 0.163,3.606 0.631,4.98 1.2,3.737 4.494,5.882 8.897,5.882 4.494,0 7.745,-2.19 8.944,-5.84 0.469,-1.459 0.552,-3.604 0.552,-6.396 0,-0.3 -0.169,-0.429 -0.467,-0.429 H -6.734 c -0.174,0 -0.258,-0.088 -0.258,-0.258 0.041,-0.429 0.017,-0.815 0.151,-1.157 0.554,-1.849 2.004,-2.747 4.273,-2.75 1.665,-0.003 2.985,0.525 3.816,1.102 0.76,0.53 0.746,0.721 1.174,0.376 l 3.183,-2.293 c 0.283,-0.213 0.255,-0.386 0.041,-0.601 -2.178,-2.317 -5.09,-3.477 -8.811,-3.477 -4.663,0 -7.959,2.146 -9.156,5.922" />
            </g>
            <g
               transform="translate(237.5546,475.3566)"
               id="g74">
              <path
                 inkscape:connector-curvature="0"
                 id="path76"
                 style="fill:#024ea2;fill-opacity:1;fill-rule:nonzero;stroke:none"
                 d="m 0,0 v 1.739 20.907 c 0,0.298 -0.129,0.425 -0.428,0.425 h -5.09 c -0.299,0 -0.428,-0.127 -0.428,-0.425 V -1.628 c 0,-4.365 1.686,-5.115 5.567,-5.115 0.121,0 0.217,0.011 0.309,0.101 C 0.014,-6.558 0,-6.338 0,-6.338 Z" />
            </g>
          </g>
        </g>
      </g>
    </g>
  </g>
</svg>
