<?xml version="1.0" encoding="UTF-8" standalone="no"?>
<!-- Created with Inkscape (http://www.inkscape.org/) -->

<svg
   xmlns:dc="http://purl.org/dc/elements/1.1/"
   xmlns:cc="http://creativecommons.org/ns#"
   xmlns:rdf="http://www.w3.org/1999/02/22-rdf-syntax-ns#"
   xmlns:svg="http://www.w3.org/2000/svg"
   xmlns="http://www.w3.org/2000/svg"
   xmlns:sodipodi="http://sodipodi.sourceforge.net/DTD/sodipodi-0.dtd"
   xmlns:inkscape="http://www.inkscape.org/namespaces/inkscape"
   width="256"
   height="100"
   viewBox="0 0 256 100"
   version="1.1"
   id="SVGRoot"
   inkscape:version="0.92.3 (2405546, 2018-03-11)"
   sodipodi:docname="lifecell_blue.svg">
  <sodipodi:namedview
     id="base"
     pagecolor="#ffffff"
     bordercolor="#666666"
     borderopacity="1.0"
     inkscape:pageopacity="0.0"
     inkscape:pageshadow="2"
     inkscape:zoom="1"
     inkscape:cx="128"
     inkscape:cy="128"
     inkscape:document-units="px"
     inkscape:current-layer="layer1"
     showgrid="false"
     inkscape:window-width="1920"
     inkscape:window-height="1019"
     inkscape:window-x="1280"
     inkscape:window-y="0"
     inkscape:window-maximized="1"
     inkscape:grid-bbox="true" />
  <defs
     id="defs358">
    <clipPath
       clipPathUnits="userSpaceOnUse"
       id="clipPath182">
      <path
         d="m 354.882,206.122 c -0.823,0.047 -1.638,0.07 -2.468,0.07 v 0 c -6.727,-0.011 -13.074,-1.631 -18.677,-4.489 v 0 c -3.327,-1.666 -6.42,-3.791 -9.155,-6.356 v 0 c -8.258,-7.561 -13.425,-18.439 -13.406,-30.524 v 0 c 0.004,-2.259 0.19,-4.482 0.543,-6.648 v 0 c 0.404,-2.804 1.163,-5.552 2.241,-8.224 v 0 l 0.048,-0.116 0.038,-0.111 0.052,-0.11 c 5.309,-13.344 17.37,-23.258 31.959,-25.533 v 0 c 2.173,-0.379 4.388,-0.578 6.616,-0.575 v 0 l 195.472,0.299 -0.125,82.614 z"
         id="path180"
         inkscape:connector-curvature="0" />
    </clipPath>
    <radialGradient
       fx="0"
       fy="0"
       cx="0"
       cy="0"
       r="1"
       gradientUnits="userSpaceOnUse"
       gradientTransform="matrix(156.89108,0.2353366,0.2353366,-156.89108,295.00058,161.17935)"
       spreadMethod="pad"
       id="radialGradient194">
      <stop
         style="stop-opacity:1;stop-color:#00b6f1"
         offset="0"
         id="stop188" />
      <stop
         style="stop-opacity:1;stop-color:#00b6f1"
         offset="0.030303"
         id="stop190" />
      <stop
         style="stop-opacity:1;stop-color:#0c4ba0"
         offset="1"
         id="stop192" />
    </radialGradient>
    <clipPath
       clipPathUnits="userSpaceOnUse"
       id="clipPath204">
      <path
         d="M 0,566.929 H 566.929 V 0 H 0 Z"
         id="path202"
         inkscape:connector-curvature="0" />
    </clipPath>
  </defs>
  <metadata
     id="metadata361">
    <rdf:RDF>
      <cc:Work
         rdf:about="">
        <dc:format>image/svg+xml</dc:format>
        <dc:type
           rdf:resource="http://purl.org/dc/dcmitype/StillImage" />
        <dc:title></dc:title>
      </cc:Work>
    </rdf:RDF>
  </metadata>
  <g
     id="layer1"
     inkscape:groupmode="layer"
     inkscape:label="Layer 1"
     transform="translate(0,-156)">
    <g
       transform="matrix(1.0547095,0,0,-1.067995,-326.15438,381.17911)"
       id="g399">
      <g
         id="g176">
        <g
           clip-path="url(#clipPath182)"
           id="g178">
          <g
             id="g184">
            <g
               id="g186">
              <path
                 inkscape:connector-curvature="0"
                 id="path196"
                 style="fill:url(#radialGradient194);stroke:none"
                 d="m 354.882,206.122 c -0.823,0.047 -1.638,0.07 -2.468,0.07 v 0 c -6.727,-0.011 -13.074,-1.631 -18.677,-4.489 v 0 c -3.327,-1.666 -6.42,-3.791 -9.155,-6.356 v 0 c -8.258,-7.561 -13.425,-18.439 -13.406,-30.524 v 0 c 0.004,-2.259 0.19,-4.482 0.543,-6.648 v 0 c 0.404,-2.804 1.163,-5.552 2.241,-8.224 v 0 l 0.048,-0.116 0.038,-0.111 0.052,-0.11 c 5.309,-13.344 17.37,-23.258 31.959,-25.533 v 0 c 2.173,-0.379 4.388,-0.578 6.616,-0.575 v 0 l 195.472,0.299 -0.125,82.614 z" />
            </g>
          </g>
        </g>
      </g>
      <g
         id="g198">
        <g
           clip-path="url(#clipPath204)"
           id="g200">
          <g
             transform="translate(325.0114,164.8081)"
             id="g206">
            <path
               inkscape:connector-curvature="0"
               id="path208"
               style="fill:#ffcb04;fill-opacity:1;fill-rule:nonzero;stroke:none"
               d="M 0,0 C -0.024,15.572 12.583,28.208 28.15,28.23 43.726,28.255 56.366,15.658 56.39,0.087 56.414,-15.488 43.813,-28.127 28.237,-28.15 c -3.077,-0.004 -6.034,0.483 -8.804,1.386 1.989,11.635 9.321,21.138 19.026,25.175 1.153,-1.327 2.854,-2.163 4.747,-2.159 3.46,0.005 6.259,2.809 6.253,6.273 C 49.452,5.989 46.647,8.793 43.187,8.788 39.727,8.783 36.932,5.98 36.928,2.519 24.542,-1.227 14.52,-9.885 9.437,-21.01 c -1.619,1.445 -3.065,3.069 -4.315,4.845 0.276,10.825 5.617,20.292 13.63,25.884 1.15,-1.294 2.824,-2.102 4.687,-2.101 3.461,0.006 6.261,2.82 6.258,6.281 -0.007,3.466 -2.816,6.263 -6.278,6.257 -3.465,-0.005 -6.267,-2.81 -6.26,-6.275 0,-0.186 0.012,-0.366 0.024,-0.541 C 9.721,10.705 3.604,5.515 0.024,-1.099 0.009,-0.735 0,-0.369 0,0" />
          </g>
          <g
             transform="translate(492.8532,157.2075)"
             id="g210">
            <path
               inkscape:connector-curvature="0"
               id="path212"
               style="fill:#ffffff;fill-opacity:1;fill-rule:nonzero;stroke:none"
               d="m 0,0 -0.002,1.714 c -0.001,0.167 -0.032,20.583 -0.032,20.583 0,0.295 -0.13,0.421 -0.424,0.42 l -4.975,-0.008 c -0.294,0 -0.419,-0.126 -0.419,-0.421 L -5.816,-1.61 c 0.006,-4.3 1.658,-5.035 5.455,-5.029 0.114,0 0.215,0.01 0.301,0.1 0.083,0.08 0.069,0.301 0.069,0.301 z" />
          </g>
          <g
             transform="translate(401.4352,156.897)"
             id="g214">
            <path
               inkscape:connector-curvature="0"
               id="path216"
               style="fill:#ffffff;fill-opacity:1;fill-rule:nonzero;stroke:none"
               d="m 0,0 -0.002,1.713 c 0,0.168 -0.033,20.585 -0.033,20.585 0,0.292 -0.126,0.422 -0.421,0.422 l -4.978,-0.009 c -0.293,0 -0.418,-0.13 -0.418,-0.422 l 0.036,-23.901 c 0.007,-4.298 1.66,-5.033 5.453,-5.028 0.123,0 0.215,0.011 0.303,0.101 0.083,0.083 0.069,0.301 0.069,0.301 z" />
          </g>
          <g
             transform="translate(416.6872,150.4321)"
             id="g218">
            <path
               inkscape:connector-curvature="0"
               id="path220"
               style="fill:#ffffff;fill-opacity:1;fill-rule:nonzero;stroke:none"
               d="m 0,0 c -0.298,0 -0.422,0.126 -0.422,0.42 l -0.024,15.694 c 0,0.166 -0.084,0.249 -0.248,0.249 l -1.258,-0.002 c -0.292,0 -0.415,0.122 -0.415,0.42 l -0.005,3.472 c -0.002,0.29 0.123,0.418 0.413,0.418 l 1.258,0.002 c 0.165,0 0.248,0.083 0.248,0.251 l -0.002,1.463 c -0.008,4.893 2.251,6.993 7.102,7.001 l 3.155,0.004 c 0.293,0 0.426,-0.124 0.426,-0.42 l 0.005,-3.779 c 0,-0.295 -0.13,-0.418 -0.423,-0.418 L 7.661,24.772 C 5.816,24.77 5.36,24.31 5.362,22.592 l 0.003,-1.658 c 0,-0.169 0.083,-0.252 0.252,-0.252 l 2.664,0.004 c 0.294,0 0.422,-0.127 0.423,-0.417 L 8.71,16.797 c 0,-0.296 -0.13,-0.42 -0.422,-0.42 L 5.623,16.373 c -0.168,0 -0.251,-0.083 -0.251,-0.249 L 5.396,0.429 c 0,-0.294 -0.131,-0.42 -0.418,-0.42 z" />
          </g>
          <g
             transform="translate(405.8141,150.4165)"
             id="g222">
            <path
               inkscape:connector-curvature="0"
               id="path224"
               style="fill:#ffffff;fill-opacity:1;fill-rule:nonzero;stroke:none"
               d="m 0,0 c -0.29,0 -0.422,0.126 -0.422,0.42 l -0.029,19.835 c -0.001,0.29 0.13,0.418 0.42,0.418 l 5.02,0.007 C 5.282,20.682 5.41,20.554 5.412,20.264 L 5.441,0.429 c 0,-0.294 -0.127,-0.42 -0.42,-0.42 z m -0.036,24.793 c -0.292,0 -0.424,0.123 -0.424,0.416 l -0.005,3.745 c 0,0.294 0.13,0.422 0.42,0.422 l 5.021,0.007 c 0.293,0.002 0.422,-0.124 0.422,-0.42 L 5.403,25.22 c 0,-0.295 -0.128,-0.418 -0.42,-0.418 z" />
          </g>
          <g
             transform="translate(448.3581,156.1714)"
             id="g226">
            <path
               inkscape:connector-curvature="0"
               id="path228"
               style="fill:#ffffff;fill-opacity:1;fill-rule:nonzero;stroke:none"
               d="m 0,0 c -0.425,1.216 -0.582,2.849 -0.583,4.857 -0.004,2.006 0.148,3.64 0.569,4.851 1.165,3.73 4.385,5.742 8.739,5.749 3.345,0.005 6.153,-1.499 7.663,-3.797 0.12,-0.209 0.12,-0.416 -0.087,-0.586 L 12.661,8.685 C 12.414,8.516 12.205,8.558 12.041,8.765 11.196,9.936 10.109,10.519 8.814,10.517 7.18,10.515 6.137,9.802 5.677,8.338 5.427,7.628 5.306,6.455 5.308,4.866 5.31,3.273 5.435,2.104 5.687,1.391 c 0.463,-1.462 1.51,-2.172 3.144,-2.168 1.296,0 2.381,0.587 3.222,1.759 0.164,0.209 0.372,0.254 0.62,0.085 L 16.32,-1.314 C 16.527,-1.478 16.527,-1.69 16.408,-1.899 14.905,-4.2 12.103,-5.715 8.755,-5.72 4.402,-5.726 1.177,-3.72 0,0" />
          </g>
          <g
             transform="translate(478.3307,163.2065)"
             id="g230">
            <path
               inkscape:connector-curvature="0"
               id="path232"
               style="fill:#ffffff;fill-opacity:1;fill-rule:nonzero;stroke:none"
               d="M 0,0 C 0.165,0 0.245,0.087 0.248,0.253 0.247,0.795 0.165,1.298 0.038,1.757 -0.471,3.223 -1.496,3.976 -3.252,3.972 -4.816,3.97 -6.243,3.212 -6.744,1.747 -6.865,1.287 -6.946,0.785 -6.945,0.242 c 0,-0.166 0.083,-0.252 0.246,-0.252 z m -12.044,-6.967 c -0.464,1.427 -0.665,3.017 -0.667,4.817 -0.004,1.879 0.151,3.511 0.609,4.85 1.17,3.642 4.387,5.742 8.695,5.749 C 0.986,8.456 4.173,6.326 5.352,2.768 5.811,1.348 5.897,-0.742 5.9,-3.465 5.902,-3.757 5.733,-3.883 5.44,-3.883 L -6.589,-3.902 c -0.162,0 -0.251,-0.084 -0.251,-0.248 0.051,-0.42 0.027,-0.795 0.148,-1.13 0.549,-1.799 1.968,-2.675 4.19,-2.675 1.628,-0.001 2.916,0.518 3.729,1.082 0.74,0.518 0.73,0.705 1.144,0.368 l 3.12,-2.232 c 0.279,-0.205 0.254,-0.376 0.043,-0.584 -2.132,-2.265 -4.974,-3.402 -8.616,-3.405 -4.558,-0.008 -7.784,2.083 -8.962,5.759" />
          </g>
          <g
             transform="translate(439.738,163.1479)"
             id="g234">
            <path
               inkscape:connector-curvature="0"
               id="path236"
               style="fill:#ffffff;fill-opacity:1;fill-rule:nonzero;stroke:none"
               d="M 0,0 C 0.17,0 0.253,0.087 0.253,0.253 0.251,0.795 0.166,1.298 0.038,1.757 -0.466,3.222 -1.492,3.976 -3.247,3.972 -4.817,3.97 -6.242,3.212 -6.74,1.747 -6.864,1.287 -6.945,0.784 -6.944,0.242 c 0,-0.166 0.08,-0.252 0.253,-0.252 z m -12.04,-6.967 c -0.463,1.427 -0.669,3.017 -0.67,4.817 -0.004,1.88 0.155,3.511 0.609,4.85 1.17,3.642 4.39,5.742 8.695,5.749 4.394,0.007 7.584,-2.123 8.757,-5.681 0.46,-1.42 0.547,-3.51 0.55,-6.233 C 5.903,-3.757 5.735,-3.883 5.443,-3.883 L -6.579,-3.902 c -0.17,0 -0.253,-0.084 -0.253,-0.248 0.04,-0.42 0.02,-0.795 0.147,-1.13 0.542,-1.801 1.962,-2.675 4.188,-2.675 1.627,-0.001 2.914,0.517 3.73,1.082 0.742,0.518 0.732,0.704 1.146,0.367 l 3.116,-2.231 c 0.278,-0.205 0.251,-0.377 0.044,-0.584 -2.136,-2.265 -4.976,-3.402 -8.617,-3.406 -4.561,-0.007 -7.784,2.085 -8.962,5.76" />
          </g>
          <g
             transform="translate(501.2614,157.2212)"
             id="g238">
            <path
               inkscape:connector-curvature="0"
               id="path240"
               style="fill:#ffffff;fill-opacity:1;fill-rule:nonzero;stroke:none"
               d="m 0,0 -0.004,1.714 c 0,0.166 -0.031,20.581 -0.031,20.581 0,0.297 -0.124,0.422 -0.421,0.422 L -5.435,22.71 c -0.291,0 -0.417,-0.128 -0.417,-0.424 l 0.037,-23.897 c 0.006,-4.3 1.658,-5.034 5.452,-5.03 0.117,0 0.211,0.011 0.303,0.101 0.081,0.079 0.07,0.301 0.07,0.301 z" />
          </g>
        </g>
      </g>
    </g>
  </g>
</svg>
