<?xml version="1.0" encoding="UTF-8" standalone="no"?>
<!-- Created with Inkscape (http://www.inkscape.org/) -->

<svg
   xmlns:dc="http://purl.org/dc/elements/1.1/"
   xmlns:cc="http://creativecommons.org/ns#"
   xmlns:rdf="http://www.w3.org/1999/02/22-rdf-syntax-ns#"
   xmlns:svg="http://www.w3.org/2000/svg"
   xmlns="http://www.w3.org/2000/svg"
   xmlns:sodipodi="http://sodipodi.sourceforge.net/DTD/sodipodi-0.dtd"
   xmlns:inkscape="http://www.inkscape.org/namespaces/inkscape"
   version="1.1"
   id="svg2"
   xml:space="preserve"
   width="610.49335"
   height="339.82666"
   viewBox="0 0 610.49335 339.82666"
   sodipodi:docname="life__.svg"
   inkscape:version="0.92.3 (2405546, 2018-03-11)"><metadata
     id="metadata8"><rdf:RDF><cc:Work
         rdf:about=""><dc:format>image/svg+xml</dc:format><dc:type
           rdf:resource="http://purl.org/dc/dcmitype/StillImage" /><dc:title></dc:title></cc:Work></rdf:RDF></metadata><defs
     id="defs6" /><sodipodi:namedview
     pagecolor="#ffffff"
     bordercolor="#666666"
     borderopacity="1"
     objecttolerance="10"
     gridtolerance="10"
     guidetolerance="10"
     inkscape:pageopacity="0"
     inkscape:pageshadow="2"
     inkscape:window-width="1920"
     inkscape:window-height="1019"
     id="namedview4"
     showgrid="false"
     inkscape:zoom="0.58313494"
     inkscape:cx="305.24667"
     inkscape:cy="169.91333"
     inkscape:window-x="1280"
     inkscape:window-y="0"
     inkscape:window-maximized="1"
     inkscape:current-layer="g10" /><g
     id="g10"
     inkscape:groupmode="layer"
     inkscape:label="ink_ext_XXXXXX"
     transform="matrix(1.3333333,0,0,-1.3333333,0,339.82667)"><g
       id="g12"
       transform="scale(0.1)"><path
         d="M 4578.7,0 H 0 V 2548.69 H 4578.7 V 0"
         style="fill:#ed1c24;fill-opacity:1;fill-rule:nonzero;stroke:none"
         id="path14"
         inkscape:connector-curvature="0" /><path
         d="m 3344.5,367.004 -0.86,-32.219 h -32.13 l 0.95,32.219 h 32.04 z m 8.04,143.75 -16.44,-122.629 h -13.39 l -8.92,122.629 h 38.75 z M 3119.2,334.785 3122.84,465 h 44.34 L 3197.54,357.645 3235.76,465 h 41.51 l -3.61,-130.215 h -27.2 l 2.98,107.363 h -1.8 l -38.2,-107.363 h -30 l -31.64,107.363 h -1.82 l -3.03,-107.363 h -23.75 z m -115.49,13.137 -0.41,-13.137 h -29.38 L 2977.58,465 h 29.39 l -1.58,-56.57 c -0.25,-8.555 -0.69,-17.617 -1.41,-27.227 4.52,6.922 10.91,15.43 19.25,25.508 l 34.55,41.512 0.5,16.777 h 29.39 l -3.68,-130.215 h -29.38 l 1.52,53.508 c 0.24,10.645 0.83,20.027 1.7,28.074 -4.34,-6.699 -10.24,-14.597 -17.73,-23.738 l -36.39,-44.707 z M 2765.55,334.785 2769.21,465 h 29.36 l -3,-107.355 h 41.85 L 2840.47,465 h 29.35 l -3.01,-107.355 h 41.9 L 2911.74,465 h 29.4 l -3.71,-130.215 h -171.88 z m -36.66,0 h -29.42 L 2703.1,465 h 29.44 l -3.65,-130.215 z m 4.07,145.391 h -29.42 l 0.86,30.578 h 29.39 l -0.83,-30.578 z M 2589.41,357.645 h 33.66 c 7.36,0 12.67,1.398 15.8,4.425 3.18,2.93 4.84,7.532 5.02,13.711 0.37,12.207 -6.23,18.274 -19.82,18.274 h -33.68 l -0.98,-36.41 z m 1.45,53.851 h 33.71 c 11.43,0 17.33,5.438 17.54,16.492 0.37,10.352 -5.19,15.625 -16.65,15.625 h -33.66 l -0.94,-32.117 z m -31.52,-76.711 3.64,130.215 h 67.69 c 15.66,0 26.34,-3.312 31.93,-9.988 5.72,-6.574 8.4,-14.055 8.18,-22.317 -0.41,-14.519 -9.07,-24.211 -25.97,-29.187 19.82,-4.922 29.51,-15.762 29.02,-32.656 -0.3,-10.645 -4.01,-19.309 -11.07,-25.989 -7.03,-6.75 -16.92,-10.078 -29.4,-10.078 h -74.02 z m -61.9,66.25 c -38.02,0 -57.27,-9.031 -57.79,-27.148 -0.11,-5.43 1.65,-10.039 5.39,-13.899 3.75,-3.836 9.44,-5.75 17.23,-5.75 11.13,0 19.67,3.575 25.59,10.645 5.89,7.043 8.99,15.129 9.23,24.14 l 0.35,12.012 z m 30.57,-66.25 h -27.94 c -2.29,7.981 -3.5,16.699 -3.8,26.309 -8.29,-19.367 -23.26,-28.992 -44.88,-28.992 -12.98,0 -23.25,3.777 -30.93,11.433 -7.6,7.539 -11.26,17.117 -10.93,28.692 0.78,29.843 27.5,44.804 80,44.804 2.04,0 4.82,-0.097 8.31,-0.156 l 0.28,9.805 c 0.36,13.554 -8.59,20.246 -27,20.246 -17.9,0 -28.17,-6.692 -30.96,-20.246 l -24.93,3.718 c 1.68,10.891 7.51,19.747 17.51,26.79 10.05,7.031 24.26,10.5 42.83,10.5 10.05,0 18.22,-0.872 24.56,-2.559 6.25,-1.66 11.53,-4.465 15.85,-8.441 4.32,-4.043 7.21,-8.356 8.73,-13.055 1.58,-4.668 2.18,-12.539 1.9,-23.797 l -1.65,-58.742 c -0.28,-8.504 0.74,-17.317 3.05,-26.309 z m -168.49,85.051 42.96,-85.051 h -31.52 l -32.46,62.961 -23.86,-24.57 -1.11,-38.391 h -29.37 L 2287.79,465 h 29.43 l -1.1,-38.672 c -0.24,-8.39 -0.67,-15.82 -1.53,-22.344 4.43,5.684 8.7,10.567 12.66,14.618 L 2372.23,465 h 28.93 l -41.64,-45.164 z m -110.67,-85.051 h -29.43 L 2223.1,465 h 29.38 l -3.63,-130.215 z m 4.08,145.391 h -29.41 l 0.88,30.578 h 29.37 l -0.84,-30.578 z M 2076.78,334.785 2080.43,465 h 29.33 l -2.96,-107.355 h 47.09 L 2156.9,465 h 29.36 l -3.03,-107.355 h 19.31 l -1.4,-52.77 h -19.41 l -2.61,29.91 h -102.34 z m -121.93,77.168 -0.63,-21.25 h -50.79 c -0.32,-11.355 2.34,-19.98 7.99,-25.73 5.63,-5.825 12.97,-8.821 21.99,-8.821 14.74,0 24.64,6.516 29.64,19.524 l 26.83,-5.156 c -9.52,-25.657 -28.36,-38.418 -56.5,-38.418 -19.69,0 -34.96,5.925 -45.72,17.918 -10.81,11.894 -15.87,28.632 -15.25,50.253 0.57,19.5 6.27,35.586 17.17,48.352 10.96,12.73 26.3,19.063 46.17,19.063 27.58,0 45.55,-12.168 53.84,-36.399 l -27.52,-5.371 c -3.71,11.816 -12.54,17.695 -26.47,17.695 -18.71,0 -29.16,-10.593 -31.53,-31.66 h 50.78 z m -137.89,-10.918 c -37.92,0 -57.2,-9.031 -57.74,-27.148 -0.15,-5.43 1.66,-10.039 5.4,-13.899 3.72,-3.836 9.44,-5.75 17.18,-5.75 11.15,0 19.68,3.575 25.59,10.645 5.94,7.043 9.02,15.129 9.28,24.14 l 0.29,12.012 z m 30.65,-66.25 h -27.91 c -2.35,7.981 -3.59,16.699 -3.84,26.309 -8.32,-19.367 -23.32,-28.992 -44.93,-28.992 -12.93,0 -23.22,3.777 -30.91,11.433 -7.63,7.539 -11.29,17.117 -11,28.692 0.84,29.843 27.59,44.804 80.04,44.804 2.1,0 4.83,-0.097 8.39,-0.156 l 0.24,9.805 c 0.42,13.554 -8.63,20.246 -27.04,20.246 -17.83,0 -28.13,-6.692 -30.94,-20.246 l -24.9,3.718 c 1.66,10.891 7.5,19.747 17.47,26.79 10.05,7.031 24.31,10.5 42.88,10.5 10.06,0 18.23,-0.872 24.54,-2.559 6.3,-1.66 11.57,-4.465 15.88,-8.441 4.25,-4.043 7.16,-8.356 8.69,-13.055 1.56,-4.668 2.19,-12.539 1.87,-23.797 l -1.68,-58.742 c -0.19,-8.504 0.83,-17.317 3.15,-26.309 z m -194.11,0 3.02,107.363 h -36.09 l 0.65,22.852 h 101.1 l -0.68,-22.852 h -35.54 l -3.06,-107.363 h -29.4 z m -68.11,47.813 25.22,-2.586 c -3.76,-16.328 -10.43,-28.403 -20.03,-36.235 -9.6,-7.793 -20.99,-11.675 -34.22,-11.675 -17.98,0 -31.6,6.472 -40.86,19.648 -9.36,13.074 -13.7,29.121 -13.16,48.133 0.55,19.59 6.29,35.808 17.23,48.555 10.94,12.832 25.16,19.25 42.78,19.25 28.35,0 44.87,-14.961 49.45,-44.875 l -25.43,-3.426 c -1.76,16.113 -9.44,24.226 -23.15,24.226 -9.97,0 -17.33,-4.394 -22.08,-13.136 -4.76,-8.707 -7.31,-19.266 -7.64,-31.61 -0.4,-13.203 1.67,-23.328 6.12,-30.41 4.5,-7.129 11.01,-10.75 19.41,-10.75 12.85,0 21.67,8.328 26.36,24.891 z m -205.18,24.746 1.05,36.269 h -30.47 c -12.53,0 -18.99,-6.406 -19.38,-19.101 -0.26,-11.453 5.39,-17.168 17.16,-17.168 h 31.64 z m -2.01,-72.559 1.46,51.047 h -31.36 l -25.6,-51.047 h -31.25 l 33.84,57.363 c -15.93,5.938 -23.7,16.934 -23.19,32.911 0.33,13.437 4.51,23.496 12.58,30.086 7.96,6.543 18.21,9.855 30.68,9.855 h 65.83 l -3.6,-130.215 h -29.39 z m -156.86,0 2.98,107.363 h -36.09 l 0.63,22.852 h 101.09 l -0.63,-22.852 h -35.59 l -3.01,-107.363 h -29.38 z m -108.67,0 2.99,107.363 h -36.03 l 0.63,22.852 h 101.06 l -0.61,-22.852 h -35.64 l -3.02,-107.363 h -29.38 z m -132.807,13.137 -0.328,-13.137 h -29.43 L 953.754,465 h 29.445 l -1.648,-56.57 c -0.238,-8.555 -0.707,-17.617 -1.356,-27.227 4.457,6.922 10.883,15.43 19.313,25.508 l 34.502,41.512 0.42,16.777 h 29.39 l -3.64,-130.215 h -29.36 l 1.5,53.508 c 0.32,10.645 0.86,20.027 1.71,28.074 -4.3,-6.699 -10.27,-14.597 -17.72,-23.738 l -36.447,-44.707 z m -101.136,87.266 62.074,-100.403 h -35.387 l -51.305,82.649 -10.277,-3.086 -2.191,-79.563 h -30.227 l 2.246,79.563 -10.203,3.086 -55.797,-82.649 h -31.195 l 63.441,91.653 -53.875,84.316 h 34.828 l 46.836,-73.762 6.559,-1.804 2.117,75.566 h 30.152 l -2.097,-75.566 6.629,1.804 51.039,73.762 h 31.203 l -54.57,-75.566 v 0"
         style="fill:#ffffff;fill-opacity:1;fill-rule:nonzero;stroke:none"
         id="path16"
         inkscape:connector-curvature="0" /><path
         d="m 3715,1986.45 -167.24,0.21 c 177.65,-324.76 161.25,-639.51 157.47,-822.16 -3.14,-174.793 -46.77,-483.738 -242.03,-831.375 h 186.84 c 78.56,118.293 138.11,238.633 181.72,357.148 55.91,151.692 92.81,304.954 95.94,466.327 3.44,186.48 -21.45,386.72 -92.7,567.43 -41.02,103 -68.32,188.56 -120,262.42 z m -224.12,-649.5 6.16,242.91 -287.66,0.18 -6.08,-242.79 287.58,-0.3 z m -31.95,-670.544 6.14,240.032 -290.35,0.3 -5.99,-240.215 290.2,-0.117 z M 1481.06,1759.13 c 3.04,69.89 4.26,114.64 4.83,184.32 -93.09,0 -168.01,0.18 -261.37,0.18 -3.14,-69.46 -3.06,-114.33 -5,-184.08 93.2,0 168.32,-0.42 261.54,-0.42 z m -32,-1088.446 c -6.23,304.218 10.84,609.086 19.6,913.646 -90.19,0 -162.36,0.28 -252.6,0.28 -5.52,-304.61 -10.47,-610.223 -33.24,-913.731 95.04,0 171.45,-0.195 266.24,-0.195 z m -472.751,5.41 c 0,409.696 33.331,820.036 55.171,1228.936 -85.792,0 -171.46,0.27 -257.136,0.27 2.469,-409.5 -26.461,-819.81 -46.301,-1229.011 85.078,0 162.996,-0.195 248.266,-0.195 z M 2447.11,1391.41 C 2380.6,1319.87 2375,1214.81 2375,1214.81 h 27.37 l 361.13,-1.35 22.87,-0.1 2.51,22.4 c 5.64,49.02 -6.25,102.85 -30.5,140.94 -35.43,51.12 -86.56,76.96 -152.35,77.14 -58.99,0.34 -119.18,-19.97 -158.92,-62.43 z M 2923.66,877.063 2886.8,689.199 c 0,0 -154.8,-37.371 -344.42,-31.562 -180.72,5.644 -283.24,79.668 -328.19,126.523 -56.77,59.27 -121.46,166.817 -109.13,343.38 11,156.73 75.39,281.76 191,371.4 116.85,89.98 235.97,100.06 315.57,99.56 183.97,-0.75 286.75,-82.37 340.16,-150.89 37.28,-46.64 97.29,-151.38 84.98,-328.09 l -1.87,-21.13 -673.46,-0.2 c 0,0 -21.69,-81.85 20.86,-174.909 36.43,-79.543 133.99,-101.738 223.07,-101.738 192.15,0 318.29,55.52 318.29,55.52 z m -723.63,900.717 c -96.99,1.78 -179.77,7.6 -220.08,-21.77 -33.27,-24.13 -27.61,-99.53 -28.48,-136.19 l 0.45,-28.53 209.55,-0.12 -36,-188.21 -169.26,0.29 -6.6,-732.566 -256.71,0.195 22.17,735.311 -129.12,-2.52 32.24,185.43 h 108.64 l 0.42,27.9 c 1.75,79.02 -1.97,184.29 75.52,258.14 71.88,66.01 164.13,72.27 207.23,76.51 71.68,6.98 223.77,-0.51 223.77,-0.51 0,0 -32.7,-173.36 -33.74,-173.36 v 0"
         style="fill:#ffffff;fill-opacity:1;fill-rule:evenodd;stroke:none"
         id="path18"
         inkscape:connector-curvature="0" /><path
         d="M 913.766,2305.13 H 888.922 V 2330 H 752.301 v -99.37 h 136.621 v 24.83 h -68.328 v 24.84 h 93.172 v -49.67 c 0,-13.73 -11.11,-24.84 -24.844,-24.84 H 752.301 c -13.727,0 -24.84,11.11 -24.84,24.84 V 2330 c 0,13.71 11.113,24.84 24.84,24.84 h 136.621 c 13.734,0 24.844,-11.13 24.844,-24.84 v -24.87"
         style="fill:#ffffff;fill-opacity:1;fill-rule:nonzero;stroke:none"
         id="path20"
         inkscape:connector-curvature="0" /><path
         d="m 1100.09,2330 v -24.85 h 24.84 V 2330 c 0,13.71 -11.12,24.84 -24.84,24.84 H 988.289 c -13.715,0 -24.832,-11.13 -24.832,-24.84 v -33.54 c 0,-13.73 11.117,-24.85 24.832,-24.85 l 111.801,-7.46 v -33.52 H 988.289 v 24.83 h -24.832 v -24.83 0 c 0,-13.73 11.117,-24.84 24.832,-24.84 h 111.801 c 13.72,0 24.84,11.11 24.84,24.84 v 33.52 c 0,13.74 -11.12,24.85 -24.84,24.85 l -111.801,7.46 V 2330 h 111.801"
         style="fill:#ffffff;fill-opacity:1;fill-rule:nonzero;stroke:none"
         id="path22"
         inkscape:connector-curvature="0" /><path
         d="m 1199.45,2330 v -124.21 h -24.83 V 2330 c 0,13.71 11.13,24.84 24.83,24.84 h 173.93 c 13.69,0 24.55,-11.14 24.55,-24.84 v -124.21 h -24.82 V 2330 h -74.42 v -124.21 h -24.84 V 2330 h -74.4"
         style="fill:#ffffff;fill-opacity:1;fill-rule:nonzero;stroke:none"
         id="path24"
         inkscape:connector-curvature="0" /><path
         d="m 1254.05,2205.79 h -34.78 v 34.77 h 34.78 v -34.77"
         style="fill:#ffffff;fill-opacity:1;fill-rule:nonzero;stroke:none"
         id="path26"
         inkscape:connector-curvature="0" /><path
         d="m 1482.67,2320.05 h -34.8 v 34.79 h 34.8 v -34.79"
         style="fill:#ffffff;fill-opacity:1;fill-rule:nonzero;stroke:none"
         id="path28"
         inkscape:connector-curvature="0" /><path
         d="m 1353.3,2205.79 h -34.78 v 34.77 h 34.78 v -34.77"
         style="fill:#ffffff;fill-opacity:1;fill-rule:nonzero;stroke:none"
         id="path30"
         inkscape:connector-curvature="0" /><path
         d="m 1254.05,2275.33 h -34.78 v 34.79 h 34.78 v -34.79"
         style="fill:#ffffff;fill-opacity:1;fill-rule:nonzero;stroke:none"
         id="path32"
         inkscape:connector-curvature="0" /><path
         d="m 1444.84,2240.56 v -5.09 h -10.68 v -29.68 h -5.75 v 29.68 h -10.74 v 5.09 h 27.17"
         style="fill:#ffffff;fill-opacity:1;fill-rule:nonzero;stroke:none"
         id="path34"
         inkscape:connector-curvature="0" /><path
         d="m 1457.42,2240.56 8.36,-27.83 8.46,27.83 h 8.43 v -34.77 h -5.54 v 28.73 l -8.56,-28.73 h -5.68 l -8.53,28.73 v -28.73 H 1449 v 34.77 h 8.42"
         style="fill:#ffffff;fill-opacity:1;fill-rule:nonzero;stroke:none"
         id="path36"
         inkscape:connector-curvature="0" /></g></g></svg>